<svg xmlns="http://www.w3.org/2000/svg" width="438.546" height="427.819" viewBox="0 0 438.546 427.819">
  <g id="github-logo" transform="translate(0 -5.365)">
    <path id="パス_3" data-name="パス 3" d="M409.132,114.573a218.318,218.318,0,0,0-79.8-79.8q-50.4-29.41-110.063-29.408T109.208,34.773a218.294,218.294,0,0,0-79.8,79.8Q0,164.965,0,224.63,0,296.3,41.827,353.536T149.89,432.763q7.71,1.431,11.419-2a11.166,11.166,0,0,0,3.711-8.562q0-.857-.144-15.417t-.144-25.406l-6.567,1.136a83.769,83.769,0,0,1-15.846,1,120.729,120.729,0,0,1-19.842-2,44.339,44.339,0,0,1-19.13-8.559A36.226,36.226,0,0,1,90.787,355.4l-2.855-6.57a71.342,71.342,0,0,0-8.992-14.559q-6.14-8-12.419-10.848l-2-1.431a20.96,20.96,0,0,1-3.711-3.429,15.663,15.663,0,0,1-2.568-4q-.858-2,1.427-3.289c1.525-.859,4.281-1.276,8.28-1.276l5.708.853q5.71,1.145,14.133,6.851a46.081,46.081,0,0,1,13.846,14.842q6.57,11.709,15.846,17.847t18.7,6.136a81.192,81.192,0,0,0,16.274-1.423,56.785,56.785,0,0,0,12.847-4.285q2.569-19.137,13.988-29.41a195.494,195.494,0,0,1-29.264-5.14,116.521,116.521,0,0,1-26.835-11.14,76.862,76.862,0,0,1-22.985-19.126q-9.135-11.421-14.987-29.979T79.368,213.2q0-34.553,22.557-58.817-10.566-25.977,2-58.24,8.28-2.572,24.554,3.853t23.84,10.994q7.569,4.562,12.135,7.708a206.2,206.2,0,0,1,109.641,0l10.849-6.849A153.653,153.653,0,0,1,311.2,99.289q15.132-5.708,23.134-3.138,12.843,32.264,2.279,58.24,22.554,24.27,22.559,58.817,0,24.267-5.853,42.966T338.2,286.153a79.818,79.818,0,0,1-23.131,18.986,116.742,116.742,0,0,1-26.84,11.136,195.292,195.292,0,0,1-29.263,5.146q14.841,12.843,14.842,40.539V422.2a11.373,11.373,0,0,0,3.572,8.562q3.568,3.418,11.276,1.995,66.244-21.98,108.068-79.226t41.825-128.906Q438.531,164.966,409.132,114.573Z" fill="#fff"/>
  </g>
</svg>
